%TF.GenerationSoftware,KiCad,Pcbnew,8.0.5*%
%TF.CreationDate,2024-10-15T13:11:44-04:00*%
%TF.ProjectId,kicad-tutorial,6b696361-642d-4747-9574-6f7269616c2e,0*%
%TF.SameCoordinates,Original*%
%TF.FileFunction,Copper,L2,Bot*%
%TF.FilePolarity,Positive*%
%FSLAX46Y46*%
G04 Gerber Fmt 4.6, Leading zero omitted, Abs format (unit mm)*
G04 Created by KiCad (PCBNEW 8.0.5) date 2024-10-15 13:11:44*
%MOMM*%
%LPD*%
G01*
G04 APERTURE LIST*
%TA.AperFunction,ComponentPad*%
%ADD10O,1.600000X1.600000*%
%TD*%
%TA.AperFunction,ComponentPad*%
%ADD11C,1.600000*%
%TD*%
%TA.AperFunction,ComponentPad*%
%ADD12C,1.800000*%
%TD*%
%TA.AperFunction,ComponentPad*%
%ADD13R,1.800000X1.800000*%
%TD*%
%TA.AperFunction,SMDPad,CuDef*%
%ADD14R,2.540000X3.510000*%
%TD*%
%TA.AperFunction,ViaPad*%
%ADD15C,0.600000*%
%TD*%
%TA.AperFunction,Conductor*%
%ADD16C,0.200000*%
%TD*%
G04 APERTURE END LIST*
D10*
%TO.P,R1,2*%
%TO.N,/led*%
X152000000Y-99000000D03*
D11*
%TO.P,R1,1*%
%TO.N,VCC*%
X164700000Y-99000000D03*
%TD*%
D12*
%TO.P,D1,2,A*%
%TO.N,/led*%
X136000000Y-99091030D03*
D13*
%TO.P,D1,1,K*%
%TO.N,GND*%
X136000000Y-96551030D03*
%TD*%
D14*
%TO.P,BT1,2,-*%
%TO.N,GND*%
X135430000Y-83000000D03*
%TO.P,BT1,1,+*%
%TO.N,VCC*%
X164790000Y-83000000D03*
%TD*%
D15*
%TO.N,VCC*%
X165000000Y-92000000D03*
%TD*%
D16*
%TO.N,VCC*%
X164790000Y-91790000D02*
X165000000Y-92000000D01*
X164790000Y-83000000D02*
X164790000Y-91790000D01*
%TO.N,GND*%
X136000000Y-96551030D02*
X136000000Y-83570000D01*
X136000000Y-83570000D02*
X135430000Y-83000000D01*
%TD*%
%TA.AperFunction,Conductor*%
%TO.N,GND*%
G36*
X169442539Y-70520185D02*
G01*
X169488294Y-70572989D01*
X169499500Y-70624500D01*
X169499500Y-104375500D01*
X169479815Y-104442539D01*
X169427011Y-104488294D01*
X169375500Y-104499500D01*
X130624500Y-104499500D01*
X130557461Y-104479815D01*
X130511706Y-104427011D01*
X130500500Y-104375500D01*
X130500500Y-99091023D01*
X134594700Y-99091023D01*
X134594700Y-99091036D01*
X134613864Y-99322327D01*
X134613866Y-99322338D01*
X134670842Y-99547330D01*
X134764075Y-99759878D01*
X134891016Y-99954177D01*
X134891019Y-99954181D01*
X134891021Y-99954183D01*
X135048216Y-100124943D01*
X135048219Y-100124945D01*
X135048222Y-100124948D01*
X135231365Y-100267494D01*
X135231371Y-100267498D01*
X135231374Y-100267500D01*
X135435497Y-100377966D01*
X135549487Y-100417098D01*
X135655015Y-100453327D01*
X135655017Y-100453327D01*
X135655019Y-100453328D01*
X135883951Y-100491530D01*
X135883952Y-100491530D01*
X136116048Y-100491530D01*
X136116049Y-100491530D01*
X136344981Y-100453328D01*
X136564503Y-100377966D01*
X136768626Y-100267500D01*
X136951784Y-100124943D01*
X137108979Y-99954183D01*
X137235924Y-99759879D01*
X137329157Y-99547330D01*
X137386134Y-99322335D01*
X137405300Y-99091030D01*
X137405300Y-99091023D01*
X137397758Y-98999998D01*
X150694532Y-98999998D01*
X150694532Y-99000001D01*
X150714364Y-99226686D01*
X150714366Y-99226697D01*
X150773258Y-99446488D01*
X150773261Y-99446497D01*
X150869431Y-99652732D01*
X150869432Y-99652734D01*
X150999954Y-99839141D01*
X151160858Y-100000045D01*
X151160861Y-100000047D01*
X151347266Y-100130568D01*
X151553504Y-100226739D01*
X151773308Y-100285635D01*
X151935230Y-100299801D01*
X151999998Y-100305468D01*
X152000000Y-100305468D01*
X152000002Y-100305468D01*
X152056673Y-100300509D01*
X152226692Y-100285635D01*
X152446496Y-100226739D01*
X152652734Y-100130568D01*
X152839139Y-100000047D01*
X153000047Y-99839139D01*
X153130568Y-99652734D01*
X153226739Y-99446496D01*
X153285635Y-99226692D01*
X153305468Y-99000000D01*
X153305468Y-98999998D01*
X163394532Y-98999998D01*
X163394532Y-99000001D01*
X163414364Y-99226686D01*
X163414366Y-99226697D01*
X163473258Y-99446488D01*
X163473261Y-99446497D01*
X163569431Y-99652732D01*
X163569432Y-99652734D01*
X163699954Y-99839141D01*
X163860858Y-100000045D01*
X163860861Y-100000047D01*
X164047266Y-100130568D01*
X164253504Y-100226739D01*
X164473308Y-100285635D01*
X164635230Y-100299801D01*
X164699998Y-100305468D01*
X164700000Y-100305468D01*
X164700002Y-100305468D01*
X164756673Y-100300509D01*
X164926692Y-100285635D01*
X165146496Y-100226739D01*
X165352734Y-100130568D01*
X165539139Y-100000047D01*
X165700047Y-99839139D01*
X165830568Y-99652734D01*
X165926739Y-99446496D01*
X165985635Y-99226692D01*
X166005468Y-99000000D01*
X165985635Y-98773308D01*
X165926739Y-98553504D01*
X165830568Y-98347266D01*
X165700047Y-98160861D01*
X165700045Y-98160858D01*
X165539141Y-97999954D01*
X165352734Y-97869432D01*
X165352732Y-97869431D01*
X165146497Y-97773261D01*
X165146488Y-97773258D01*
X164926697Y-97714366D01*
X164926693Y-97714365D01*
X164926692Y-97714365D01*
X164926691Y-97714364D01*
X164926686Y-97714364D01*
X164700002Y-97694532D01*
X164699998Y-97694532D01*
X164473313Y-97714364D01*
X164473302Y-97714366D01*
X164253511Y-97773258D01*
X164253502Y-97773261D01*
X164047267Y-97869431D01*
X164047265Y-97869432D01*
X163860858Y-97999954D01*
X163699954Y-98160858D01*
X163569432Y-98347265D01*
X163569431Y-98347267D01*
X163473261Y-98553502D01*
X163473258Y-98553511D01*
X163414366Y-98773302D01*
X163414364Y-98773313D01*
X163394532Y-98999998D01*
X153305468Y-98999998D01*
X153285635Y-98773308D01*
X153226739Y-98553504D01*
X153130568Y-98347266D01*
X153000047Y-98160861D01*
X153000045Y-98160858D01*
X152839141Y-97999954D01*
X152652734Y-97869432D01*
X152652732Y-97869431D01*
X152446497Y-97773261D01*
X152446488Y-97773258D01*
X152226697Y-97714366D01*
X152226693Y-97714365D01*
X152226692Y-97714365D01*
X152226691Y-97714364D01*
X152226686Y-97714364D01*
X152000002Y-97694532D01*
X151999998Y-97694532D01*
X151773313Y-97714364D01*
X151773302Y-97714366D01*
X151553511Y-97773258D01*
X151553502Y-97773261D01*
X151347267Y-97869431D01*
X151347265Y-97869432D01*
X151160858Y-97999954D01*
X150999954Y-98160858D01*
X150869432Y-98347265D01*
X150869431Y-98347267D01*
X150773261Y-98553502D01*
X150773258Y-98553511D01*
X150714366Y-98773302D01*
X150714364Y-98773313D01*
X150694532Y-98999998D01*
X137397758Y-98999998D01*
X137386135Y-98859732D01*
X137386133Y-98859721D01*
X137329157Y-98634729D01*
X137235924Y-98422181D01*
X137108981Y-98227879D01*
X137013832Y-98124519D01*
X136982910Y-98061865D01*
X136990770Y-97992439D01*
X137034918Y-97938283D01*
X137061730Y-97924355D01*
X137142084Y-97894385D01*
X137142093Y-97894380D01*
X137257187Y-97808220D01*
X137257190Y-97808217D01*
X137343350Y-97693123D01*
X137343354Y-97693116D01*
X137393596Y-97558409D01*
X137393598Y-97558402D01*
X137399999Y-97498874D01*
X137400000Y-97498857D01*
X137400000Y-96801030D01*
X136375278Y-96801030D01*
X136419333Y-96724724D01*
X136450000Y-96610274D01*
X136450000Y-96491786D01*
X136419333Y-96377336D01*
X136375278Y-96301030D01*
X137400000Y-96301030D01*
X137400000Y-95603202D01*
X137399999Y-95603185D01*
X137393598Y-95543657D01*
X137393596Y-95543650D01*
X137343354Y-95408943D01*
X137343350Y-95408936D01*
X137257190Y-95293842D01*
X137257187Y-95293839D01*
X137142093Y-95207679D01*
X137142086Y-95207675D01*
X137007379Y-95157433D01*
X137007372Y-95157431D01*
X136947844Y-95151030D01*
X136250000Y-95151030D01*
X136250000Y-96175752D01*
X136173694Y-96131697D01*
X136059244Y-96101030D01*
X135940756Y-96101030D01*
X135826306Y-96131697D01*
X135750000Y-96175752D01*
X135750000Y-95151030D01*
X135052155Y-95151030D01*
X134992627Y-95157431D01*
X134992620Y-95157433D01*
X134857913Y-95207675D01*
X134857906Y-95207679D01*
X134742812Y-95293839D01*
X134742809Y-95293842D01*
X134656649Y-95408936D01*
X134656645Y-95408943D01*
X134606403Y-95543650D01*
X134606401Y-95543657D01*
X134600000Y-95603185D01*
X134600000Y-96301030D01*
X135624722Y-96301030D01*
X135580667Y-96377336D01*
X135550000Y-96491786D01*
X135550000Y-96610274D01*
X135580667Y-96724724D01*
X135624722Y-96801030D01*
X134600000Y-96801030D01*
X134600000Y-97498874D01*
X134606401Y-97558402D01*
X134606403Y-97558409D01*
X134656645Y-97693116D01*
X134656649Y-97693123D01*
X134742809Y-97808217D01*
X134742812Y-97808220D01*
X134857906Y-97894380D01*
X134857913Y-97894384D01*
X134938270Y-97924355D01*
X134994204Y-97966226D01*
X135018621Y-98031690D01*
X135003770Y-98099963D01*
X134986168Y-98124519D01*
X134891021Y-98227877D01*
X134891019Y-98227878D01*
X134891016Y-98227883D01*
X134764075Y-98422181D01*
X134670842Y-98634729D01*
X134613866Y-98859721D01*
X134613864Y-98859732D01*
X134594700Y-99091023D01*
X130500500Y-99091023D01*
X130500500Y-84802844D01*
X133660000Y-84802844D01*
X133666401Y-84862372D01*
X133666403Y-84862379D01*
X133716645Y-84997086D01*
X133716649Y-84997093D01*
X133802809Y-85112187D01*
X133802812Y-85112190D01*
X133917906Y-85198350D01*
X133917913Y-85198354D01*
X134052620Y-85248596D01*
X134052627Y-85248598D01*
X134112155Y-85254999D01*
X134112172Y-85255000D01*
X135180000Y-85255000D01*
X135680000Y-85255000D01*
X136747828Y-85255000D01*
X136747844Y-85254999D01*
X136807372Y-85248598D01*
X136807379Y-85248596D01*
X136942086Y-85198354D01*
X136942093Y-85198350D01*
X137057187Y-85112190D01*
X137057190Y-85112187D01*
X137143350Y-84997093D01*
X137143354Y-84997086D01*
X137193596Y-84862379D01*
X137193598Y-84862372D01*
X137199999Y-84802844D01*
X137200000Y-84802827D01*
X137200000Y-83250000D01*
X135680000Y-83250000D01*
X135680000Y-85255000D01*
X135180000Y-85255000D01*
X135180000Y-83250000D01*
X133660000Y-83250000D01*
X133660000Y-84802844D01*
X130500500Y-84802844D01*
X130500500Y-81197155D01*
X133660000Y-81197155D01*
X133660000Y-82750000D01*
X135180000Y-82750000D01*
X135680000Y-82750000D01*
X137200000Y-82750000D01*
X137200000Y-81197172D01*
X137199999Y-81197155D01*
X137199997Y-81197135D01*
X163019500Y-81197135D01*
X163019500Y-84802870D01*
X163019501Y-84802876D01*
X163025908Y-84862483D01*
X163076202Y-84997328D01*
X163076206Y-84997335D01*
X163162452Y-85112544D01*
X163162455Y-85112547D01*
X163277664Y-85198793D01*
X163277671Y-85198797D01*
X163322618Y-85215561D01*
X163412517Y-85249091D01*
X163472127Y-85255500D01*
X164065500Y-85255499D01*
X164132539Y-85275183D01*
X164178294Y-85327987D01*
X164189500Y-85379499D01*
X164189500Y-91703330D01*
X164189499Y-91703348D01*
X164189499Y-91710943D01*
X164189499Y-91869057D01*
X164193833Y-91885234D01*
X164197288Y-91898127D01*
X164200733Y-91944100D01*
X164194436Y-91999996D01*
X164194435Y-92000004D01*
X164214630Y-92179249D01*
X164214631Y-92179254D01*
X164274211Y-92349523D01*
X164370184Y-92502262D01*
X164497738Y-92629816D01*
X164650478Y-92725789D01*
X164820745Y-92785368D01*
X164820750Y-92785369D01*
X164999996Y-92805565D01*
X165000000Y-92805565D01*
X165000004Y-92805565D01*
X165179249Y-92785369D01*
X165179252Y-92785368D01*
X165179255Y-92785368D01*
X165349522Y-92725789D01*
X165502262Y-92629816D01*
X165629816Y-92502262D01*
X165725789Y-92349522D01*
X165785368Y-92179255D01*
X165805565Y-92000000D01*
X165790811Y-91869057D01*
X165785369Y-91820750D01*
X165785368Y-91820745D01*
X165725789Y-91650478D01*
X165629816Y-91497738D01*
X165502262Y-91370184D01*
X165502259Y-91370182D01*
X165448527Y-91336419D01*
X165402236Y-91284084D01*
X165390500Y-91231426D01*
X165390500Y-85379499D01*
X165410185Y-85312460D01*
X165462989Y-85266705D01*
X165514500Y-85255499D01*
X166107871Y-85255499D01*
X166107872Y-85255499D01*
X166167483Y-85249091D01*
X166302331Y-85198796D01*
X166417546Y-85112546D01*
X166503796Y-84997331D01*
X166554091Y-84862483D01*
X166560500Y-84802873D01*
X166560499Y-81197128D01*
X166554091Y-81137517D01*
X166503884Y-81002906D01*
X166503797Y-81002671D01*
X166503793Y-81002664D01*
X166417547Y-80887455D01*
X166417544Y-80887452D01*
X166302335Y-80801206D01*
X166302328Y-80801202D01*
X166167482Y-80750908D01*
X166167483Y-80750908D01*
X166107883Y-80744501D01*
X166107881Y-80744500D01*
X166107873Y-80744500D01*
X166107864Y-80744500D01*
X163472129Y-80744500D01*
X163472123Y-80744501D01*
X163412516Y-80750908D01*
X163277671Y-80801202D01*
X163277664Y-80801206D01*
X163162455Y-80887452D01*
X163162452Y-80887455D01*
X163076206Y-81002664D01*
X163076202Y-81002671D01*
X163025908Y-81137517D01*
X163019501Y-81197116D01*
X163019501Y-81197123D01*
X163019500Y-81197135D01*
X137199997Y-81197135D01*
X137193598Y-81137627D01*
X137193596Y-81137620D01*
X137143354Y-81002913D01*
X137143350Y-81002906D01*
X137057190Y-80887812D01*
X137057187Y-80887809D01*
X136942093Y-80801649D01*
X136942086Y-80801645D01*
X136807379Y-80751403D01*
X136807372Y-80751401D01*
X136747844Y-80745000D01*
X135680000Y-80745000D01*
X135680000Y-82750000D01*
X135180000Y-82750000D01*
X135180000Y-80745000D01*
X134112155Y-80745000D01*
X134052627Y-80751401D01*
X134052620Y-80751403D01*
X133917913Y-80801645D01*
X133917906Y-80801649D01*
X133802812Y-80887809D01*
X133802809Y-80887812D01*
X133716649Y-81002906D01*
X133716645Y-81002913D01*
X133666403Y-81137620D01*
X133666401Y-81137627D01*
X133660000Y-81197155D01*
X130500500Y-81197155D01*
X130500500Y-70624500D01*
X130520185Y-70557461D01*
X130572989Y-70511706D01*
X130624500Y-70500500D01*
X169375500Y-70500500D01*
X169442539Y-70520185D01*
G37*
%TD.AperFunction*%
%TD*%
M02*
